Simulation
nRows=19
nColumns=15
endheader
time  TH_x TH_y TH_z SC_y  SC_z  SC_x  AC_y  AC_z  AC_x  GH_y  GH_z  GH_yy  EL_x  PS_y
7.203000000000001  0.000000  0.000000  0.000000  -21.1261198307277  -0.9134237367606819  -24.881462891791045  38.731070728672755  18.418533562674128  6.477868590834153  49.42535721085388  29.41023112113198  15.220181736902079  13.316397010782133  120.000000
7.251020000000001  0.000000  0.000000  0.000000  -21.172162200136142  -0.7740957866884529  -24.766450325311638  39.700322215590674  18.15133358591486  6.915865467883199  47.49131316147327  32.21836199033859  15.037620634349679  12.752551760673157  120.000000
7.2990400000000015  0.000000  0.000000  0.000000  -21.309562520999034  -0.484037858407498  -24.20052770191727  41.40749867969346  17.514178216793155  7.394045887857919  44.82356361585933  35.10910087041454  15.060515676146428  12.267439743665623  120.000000
7.347060000000001  0.000000  0.000000  0.000000  -21.61095579951446  -0.059859719446648106  -23.110819095258442  43.761610170762786  16.594233672344366  7.889676620517942  41.79665246747807  38.005942224290784  15.094185851642363  11.87312725747901  120.000000
7.395080000000001  0.000000  0.000000  0.000000  -22.122503954988918  0.5085708750123036  -21.454745792557567  46.613950861387394  15.442378355171654  8.388011423041394  38.771198345330106  40.869967977135374  14.973942669788114  11.555612394386506  120.000000
7.443100000000001  0.000000  0.000000  0.000000  -22.88605031431648  1.2313895842329625  -19.204676957278156  49.782706270040144  14.080346283142045  8.868005502305152  36.07900563421093  43.687627414361785  14.535669746092308  11.295209425684025  120.000000
7.491120000000001  0.000000  0.000000  0.000000  -23.87485095057494  2.1009743724259486  -16.335674532362294  53.05005977679849  12.537432041744292  9.287923811518562  33.95403667155973  46.41487464323735  13.6570767472937  11.080654095208562  120.000000
7.5391400000000015  0.000000  0.000000  0.000000  -24.984723384028328  3.091920323486337  -12.847187465818266  56.1834548762951  10.874891749984599  9.57833682179431  32.493631980921755  48.979663030144316  12.272192980536733  10.901917581259108  120.000000
7.587160000000001  0.000000  0.000000  0.000000  -26.055575873043967  4.176852335516652  -8.781137408733915  58.96768671570492  9.15716262603834  9.66518721358488  31.668571763415596  51.32474437442072  10.391277449023029  10.753916092484983  120.000000
7.635180000000001  0.000000  0.000000  0.000000  -26.962706031447084  5.324938656236915  -4.238403606082292  61.23369283499148  7.400900683356961  9.513130878416476  31.358286912567173  53.43901141831265  8.088243210025443  10.631933284161182  120.000000
7.683200000000001  0.000000  0.000000  0.000000  -27.666607538840726  6.497346310547847  0.629644487232148  62.90790124852021  5.609180613219989  9.119608186905678  31.395363402523895  55.33000089428202  5.484908515913401  10.532038849119433  120.000000
7.731220000000001  0.000000  0.000000  0.000000  -28.198755238478295  7.653577032242886  5.682050986388936  64.00357031274537  3.760766844982243  8.52419711700664  31.61200328245544  56.989819983123205  2.7251394550612043  10.45508396829408  120.000000
7.7792400000000015  0.000000  0.000000  0.000000  -28.6200357285845  8.757509201564089  10.809590807083275  64.60533296001839  1.8404077356057709  7.7739522869707045  31.86634567106665  58.40189928745317  -0.049400050456445264  10.4022168773471  120.000000
7.827260000000001  0.000000  0.000000  0.000000  -28.988034980623627  9.778723525850022  15.930353168582988  64.82535788718779  -0.14991174733508156  6.919918266928294  32.059335792886465  59.55105509225913  -2.7159645195270334  10.376303461428083  120.000000
7.875280000000001  0.000000  0.000000  0.000000  -29.341017921447584  10.687728359955573  20.96886043308973  64.7800881450673  -2.1864525857856125  6.0057321143469204  32.13109954370322  60.44013948188464  -5.180005206993954  10.375448596275595  120.000000
7.923300000000001  0.000000  0.000000  0.000000  -29.697866651639046  11.455469183990726  25.843600344998706  64.56886156036366  -4.223516781404305  5.068558351400252  32.05777543744116  61.08984475960722  -7.371084471158896  10.39508580050701  120.000000
7.971320000000001  0.000000  0.000000  0.000000  -30.061513148535337  12.054618607496602  30.458050340761126  64.27070391305463  -6.196159005518725  4.135699671161343  31.845031945138135  61.54216743975539  -9.243168934090255  10.424244456215293  120.000000
8.019340000000001  0.000000  0.000000  0.000000  -30.42628797804388  12.462413495256026  34.70741063888969  63.94420275103401  -8.029825936400774  3.224937342627556  31.52232590094778  61.85204006902774  -10.769504531738773  10.45079104647096  120.000000
8.06736  0.000000  0.000000  0.000000  -30.779239321476837  12.665035627939242  38.48766948416872  63.6304541042591  -9.652236798572352  2.344298871574952  31.13546111965088  62.07800410085894  -11.945686022340563  10.462696510533203  120.000000
